<svg xmlns="http://www.w3.org/2000/svg" xmlns:xlink="http://www.w3.org/1999/xlink" viewBox="0,0,256,256" width="48px" height="48px" fill-rule="nonzero"><g fill="#ffd800" fill-rule="nonzero" stroke="none" stroke-width="1" stroke-linecap="butt" stroke-linejoin="miter" stroke-miterlimit="10" stroke-dasharray="" stroke-dashoffset="0" font-family="none" font-weight="none" font-size="none" text-anchor="none" style="mix-blend-mode: normal"><g transform="scale(10.66667,10.66667)"><path d="M13.84278,12l8.9541,-6.59766c0.10645,-0.07861 0.17773,-0.19678 0.19727,-0.32812c0.02051,-0.13135 -0.01367,-0.26514 -0.0918,-0.37158c-2.18066,-2.94482 -5.88184,-4.70264 -9.90234,-4.70264c-6.61719,0 -12,5.3833 -12,12c0,6.6167 5.38281,12 12,12c4.02051,0 7.72168,-1.75781 9.90234,-4.70264c0.07813,-0.10645 0.1123,-0.24023 0.0918,-0.37158c-0.01953,-0.13135 -0.09082,-0.24951 -0.19727,-0.32812zM12.50001,8c-1.37891,0 -2.5,-1.12158 -2.5,-2.5c0,-1.37842 1.12109,-2.5 2.5,-2.5c1.37891,0 2.5,1.12158 2.5,2.5c0,1.37842 -1.12109,2.5 -2.5,2.5z"></path></g></g></svg>