<svg xmlns="http://www.w3.org/2000/svg" xmlns:xlink="http://www.w3.org/1999/xlink" viewBox="0,0,256,256" width="48px" height="48px" fill-rule="nonzero"><g fill="#f52727" fill-rule="nonzero" stroke="none" stroke-width="1" stroke-linecap="butt" stroke-linejoin="miter" stroke-miterlimit="10" stroke-dasharray="" stroke-dashoffset="0" font-family="none" font-weight="none" font-size="none" text-anchor="none" style="mix-blend-mode: normal"><g transform="scale(10.66667,10.66667)"><path d="M12,0c-5.51367,0 -10,4.48584 -10,10v13.5c0,0.27637 0.22363,0.5 0.5,0.5c1.03516,0 1.55762,-0.65967 1.97754,-1.18945c0.41016,-0.51758 0.66797,-0.81055 1.19336,-0.81055c0.52539,0 0.7832,0.29297 1.19434,0.81055c0.41992,0.52979 0.94336,1.18945 1.97754,1.18945c1.0332,0 1.55566,-0.65967 1.97461,-1.18945c0.41016,-0.51758 0.66699,-0.81055 1.19141,-0.81055c0.52344,0 0.78027,0.29248 1.18945,0.81006c0.41992,0.53027 0.94238,1.18994 1.97559,1.18994c1.0332,0 1.55469,-0.65967 1.97363,-1.18945c0.41016,-0.51758 0.66699,-0.81055 1.19141,-0.81055c0.52246,0 0.7793,0.29248 1.1875,0.80957c0.41895,0.53027 0.94043,1.19043 1.97363,1.19043c0.27637,0 0.5,-0.22363 0.5,-0.5v-13.5c0,-5.51416 -4.48633,-10 -10,-10zM17,9.0921c-0.58075,0.20709 -1,0.7569 -1,1.4079c0,0.6297 0.39105,1.16785 0.94214,1.38989c-0.17291,0.63751 -0.75067,1.11011 -1.44214,1.11011c-0.82715,0 -1.5,-0.67285 -1.5,-1.5v-3c0,-0.82715 0.67285,-1.5 1.5,-1.5c0.82715,0 1.5,0.67285 1.5,1.5zM10,9.0921c-0.58075,0.20709 -1,0.7569 -1,1.4079c0,0.6297 0.39105,1.16785 0.94214,1.38989c-0.17291,0.63751 -0.75067,1.11011 -1.44214,1.11011c-0.82715,0 -1.5,-0.67285 -1.5,-1.5v-3c0,-0.82715 0.67285,-1.5 1.5,-1.5c0.82715,0 1.5,0.67285 1.5,1.5z"></path></g></g></svg>