<svg xmlns="http://www.w3.org/2000/svg"  viewBox="0 0 24 24" width="48px" height="48px"><path d="M12,0C6.4863281,0,2,4.4858398,2,10v13.5C2,23.7763672,2.2236328,24,2.5,24	c1.0351563,0,1.5576172-0.659668,1.9775391-1.1894531C4.8876953,22.2929688,5.1455078,22,5.6708984,22	s0.7832031,0.2929688,1.1943359,0.8105469C7.2851563,23.340332,7.8085938,24,8.8427734,24	c1.0332031,0,1.5556641-0.659668,1.9746094-1.1894531C11.2275391,22.2929688,11.484375,22,12.0087891,22	c0.5234375,0,0.7802734,0.2924805,1.1894531,0.8100586C13.6181641,23.340332,14.140625,24,15.1738281,24	s1.5546875-0.659668,1.9736328-1.1894531C17.5576172,22.2929688,17.8144531,22,18.3388672,22	c0.5224609,0,0.7792969,0.2924805,1.1875,0.8095703C19.9453125,23.3398438,20.4667969,24,21.5,24c0.2763672,0,0.5-0.2236328,0.5-0.5	V10C22,4.4858398,17.5136719,0,12,0z M17,9.0921021C16.4192505,9.2991943,16,9.848999,16,10.5	c0,0.6296997,0.3910522,1.1678467,0.9421387,1.3898926C16.7692261,12.5274048,16.1914673,13,15.5,13	c-0.8271484,0-1.5-0.6728516-1.5-1.5v-3C14,7.6728516,14.6728516,7,15.5,7S17,7.6728516,17,8.5V9.0921021z M10,9.0921021	C9.4192505,9.2991943,9,9.848999,9,10.5c0,0.6296997,0.3910522,1.1678467,0.9421387,1.3898926	C9.7692261,12.5274048,9.1914673,13,8.5,13C7.6728516,13,7,12.3271484,7,11.5v-3C7,7.6728516,7.6728516,7,8.5,7S10,7.6728516,10,8.5	V9.0921021z"/></svg>